<?xml version="1.0" encoding="UTF-8" ?>
<!DOCTYPE svg PUBLIC "-//W3C//DTD SVG 1.1//EN" "http://www.w3.org/Graphics/SVG/1.1/DTD/svg11.dtd">
<svg width="1280pt" height="383pt" viewBox="0 0 1280 383" version="1.1" xmlns="http://www.w3.org/2000/svg">
<g id="#ffffffff">
<path fill="#ffffff" opacity="1.00" d=" M 233.49 16.50 C 237.90 13.40 243.60 11.44 248.96 12.97 C 255.82 14.64 262.07 19.94 263.41 27.09 C 266.39 37.00 259.44 48.65 249.10 50.29 C 244.44 51.92 239.72 49.90 235.27 48.57 C 227.35 52.97 222.61 61.51 221.39 70.30 C 230.92 61.99 242.33 55.36 255.01 53.52 C 257.99 49.85 262.19 47.12 266.90 46.37 C 276.10 44.27 286.49 50.61 288.53 59.91 C 291.03 67.58 287.60 76.38 281.08 80.94 C 274.37 85.74 264.83 84.85 258.25 80.24 C 255.15 80.53 252.27 81.77 249.42 82.93 C 264.10 93.36 275.21 108.97 279.61 126.50 C 287.11 151.69 279.65 180.17 262.21 199.56 C 268.95 205.38 274.34 212.57 278.93 220.16 C 285.86 232.22 289.19 246.14 289.57 259.98 C 289.33 272.65 286.58 285.40 280.86 296.75 C 276.61 304.60 278.95 313.91 280.76 322.13 C 283.10 333.90 288.53 344.70 293.56 355.49 C 294.94 358.58 294.63 362.12 293.15 365.11 C 289.75 371.15 280.11 371.57 275.77 366.37 C 271.94 362.52 268.20 358.51 263.86 355.23 C 253.90 348.16 242.36 343.53 230.55 340.61 C 224.71 339.20 218.81 340.94 212.97 341.33 C 208.28 341.83 203.55 341.37 198.89 340.82 C 187.74 339.10 176.60 336.07 166.98 330.03 C 148.99 319.25 135.10 301.36 130.10 280.90 C 127.95 273.57 127.27 265.90 127.46 258.29 C 114.35 259.49 101.13 257.50 88.74 253.17 C 71.98 247.08 56.74 235.15 49.19 218.72 C 46.73 212.12 44.75 205.09 45.27 197.98 C 46.15 190.33 48.37 182.53 53.35 176.50 C 57.56 170.66 63.31 166.10 69.53 162.58 C 67.24 154.22 64.63 145.75 64.84 136.99 C 64.65 129.13 66.71 121.41 69.37 114.08 C 74.27 103.47 83.51 94.63 94.94 91.55 C 110.74 86.45 127.88 91.15 142.05 98.77 C 151.97 86.22 165.58 76.30 181.06 71.94 C 185.35 70.51 189.79 69.68 194.22 68.86 C 195.95 59.23 198.61 49.48 204.34 41.39 C 209.83 32.92 217.90 26.23 227.12 22.16 C 230.03 21.27 231.04 18.06 233.49 16.50 M 236.03 29.35 C 229.64 31.62 223.55 34.93 218.68 39.71 C 208.26 49.64 203.88 64.30 203.48 78.37 C 179.69 78.41 156.75 91.91 144.85 112.45 C 135.98 106.22 125.90 101.25 115.03 99.92 C 106.66 98.80 97.71 99.84 90.45 104.40 C 82.84 109.06 77.93 117.26 76.05 125.86 C 72.90 139.95 76.22 154.79 82.92 167.36 C 72.72 171.24 62.84 177.87 58.00 187.98 C 53.74 196.73 54.64 207.26 58.94 215.81 C 64.71 227.33 75.07 236.05 86.62 241.44 C 102.75 249.08 121.50 250.22 138.77 246.17 C 136.19 259.81 137.32 274.23 142.62 287.10 C 148.46 301.45 159.13 313.78 172.49 321.62 C 186.38 329.85 203.15 333.05 219.10 330.56 C 224.42 329.70 229.92 329.97 235.10 331.51 C 248.33 334.91 261.17 340.42 272.02 348.81 C 276.14 352.12 279.61 356.13 283.47 359.73 C 283.73 359.76 284.24 359.83 284.50 359.86 C 279.23 348.76 273.89 337.54 271.25 325.46 C 269.49 317.46 267.61 309.17 268.88 300.96 C 269.67 295.48 272.92 290.86 274.77 285.73 C 280.71 270.31 281.01 252.81 275.63 237.18 C 270.49 222.12 260.06 209.03 246.73 200.39 C 262.08 187.94 271.94 168.84 272.36 149.00 C 273.10 129.20 264.62 109.33 249.85 96.14 C 244.58 91.09 238.09 87.62 231.87 83.99 C 239.14 75.16 250.66 70.03 262.06 70.11 C 264.32 71.44 266.08 73.80 268.88 74.06 C 274.19 75.10 279.70 70.36 279.36 64.95 C 279.54 60.04 274.88 55.60 269.98 56.06 C 265.87 55.84 262.85 59.24 261.30 62.68 C 247.09 63.78 234.04 71.23 224.43 81.52 C 219.94 80.17 215.34 79.31 210.70 78.70 C 210.79 70.30 212.18 61.70 216.24 54.25 C 220.51 46.06 228.23 39.86 236.96 37.00 C 239.44 38.64 241.74 41.18 245.01 40.86 C 250.54 41.14 255.33 35.27 253.94 29.91 C 253.02 24.79 246.99 21.23 242.10 23.17 C 239.09 24.00 237.42 26.79 236.03 29.35 Z" />
<path fill="#ffffff" opacity="1.00" d=" M 193.31 130.51 C 197.91 128.67 203.33 133.23 202.19 138.07 C 201.55 142.98 194.68 145.32 191.18 141.82 C 187.38 138.77 188.79 132.05 193.31 130.51 Z" />
<path fill="#ffffff" opacity="1.00" d=" M 225.62 139.69 C 229.01 136.82 235.02 139.54 234.92 144.00 C 235.62 148.36 230.09 151.82 226.42 149.52 C 222.69 147.77 222.41 142.09 225.62 139.69 Z" />
<path fill="#ffffff" opacity="1.00" d=" M 375.40 152.73 C 394.63 144.16 416.52 142.73 437.10 146.40 C 455.85 149.74 473.82 159.10 485.92 174.02 C 474.87 183.69 463.91 193.47 452.79 203.08 C 446.14 195.31 437.30 189.03 427.11 187.12 C 416.05 185.05 403.74 186.69 394.68 193.73 C 387.44 199.29 383.24 208.06 382.03 216.98 C 380.56 227.56 382.01 238.99 388.08 248.00 C 392.63 254.86 399.93 259.68 407.91 261.56 C 417.44 263.79 427.63 262.72 436.64 258.99 C 436.59 246.12 436.66 233.25 436.60 220.38 C 451.57 220.29 466.54 220.36 481.50 220.34 C 481.49 241.93 481.53 263.52 481.48 285.11 C 462.73 297.44 440.31 303.64 417.99 304.43 C 397.44 305.10 376.28 299.73 359.73 287.24 C 345.74 276.84 335.67 261.40 331.69 244.45 C 326.94 224.22 329.36 201.99 339.96 183.95 C 348.03 170.09 360.78 159.20 375.40 152.73 Z" />
<path fill="#ffffff" opacity="1.00" d=" M 864.01 154.37 C 880.50 154.38 897.00 154.37 913.50 154.37 C 913.50 165.54 913.50 176.71 913.50 187.88 C 921.67 187.87 929.83 187.87 938.00 187.87 C 938.00 199.92 938.00 211.96 938.00 224.00 C 929.83 224.00 921.67 224.00 913.50 224.00 C 913.52 234.31 913.46 244.63 913.53 254.94 C 913.45 259.42 915.91 264.28 920.45 265.59 C 925.41 266.96 930.63 265.33 934.98 262.88 C 938.91 274.33 942.88 285.76 946.78 297.22 C 936.74 302.45 925.16 303.64 914.00 303.45 C 900.89 303.18 886.89 300.19 877.06 290.94 C 868.07 282.56 864.43 270.00 864.07 258.03 C 863.90 246.69 864.05 235.34 864.00 224.00 C 858.53 224.00 853.06 224.00 847.59 224.00 C 847.59 211.96 847.59 199.92 847.59 187.88 C 853.06 187.87 858.53 187.87 864.00 187.88 C 864.00 176.71 863.99 165.54 864.01 154.37 Z" />
<path fill="#ffffff" opacity="1.00" d=" M 544.07 194.00 C 553.67 183.05 568.70 178.86 582.85 178.96 C 582.85 193.67 582.84 208.38 582.85 223.08 C 573.75 221.89 563.55 221.13 555.54 226.45 C 548.88 230.92 546.53 239.38 546.52 247.01 C 546.49 265.00 546.49 282.99 546.52 300.98 C 530.01 301.03 513.50 300.99 497.00 301.00 C 497.02 261.16 496.96 221.32 497.03 181.48 C 512.72 181.53 528.41 181.46 544.10 181.52 C 544.08 185.68 544.11 189.84 544.07 194.00 Z" />
<path fill="#ffffff" opacity="1.00" d=" M 629.05 182.05 C 645.81 177.35 664.19 177.94 680.42 184.38 C 693.76 189.64 705.30 199.76 711.36 212.85 C 717.27 225.13 718.04 239.14 716.60 252.50 C 688.85 252.52 661.10 252.46 633.35 252.53 C 636.49 261.48 645.74 266.73 654.93 266.88 C 664.95 267.89 674.85 264.29 682.51 257.92 C 691.07 266.73 699.71 275.48 708.32 284.25 C 698.79 294.83 685.02 300.67 671.08 302.47 C 651.44 305.05 630.45 302.97 613.08 292.86 C 600.28 285.49 590.23 273.29 586.10 259.05 C 581.24 242.55 583.12 223.90 592.20 209.16 C 600.34 195.75 614.07 186.29 629.05 182.05 M 641.52 215.24 C 636.52 217.93 633.71 223.25 632.47 228.60 C 645.35 228.65 658.24 228.63 671.13 228.60 C 670.08 224.57 668.44 220.53 665.30 217.68 C 659.02 211.86 648.91 211.27 641.52 215.24 Z" />
<path fill="#ffffff" opacity="1.00" d=" M 723.67 192.48 C 742.12 181.83 763.99 178.17 785.08 179.21 C 800.20 180.06 816.18 183.83 827.43 194.59 C 835.17 201.91 839.61 212.11 841.34 222.50 C 842.86 230.93 842.44 239.53 842.50 248.05 C 842.51 265.69 842.48 283.34 842.52 300.98 C 827.18 301.10 811.84 301.00 796.50 301.03 C 796.51 295.95 796.45 290.87 796.54 285.80 C 792.97 292.92 786.67 298.62 779.04 301.04 C 768.61 304.38 757.22 304.14 746.65 301.63 C 737.31 299.30 728.45 293.88 723.33 285.57 C 717.30 275.78 716.32 263.06 720.52 252.39 C 724.22 243.16 733.02 237.08 742.22 234.12 C 758.53 228.65 775.96 230.30 792.87 229.96 C 791.88 223.39 786.62 218.16 780.17 216.88 C 766.24 213.90 751.06 217.16 739.40 225.32 C 734.20 214.35 728.84 203.46 723.67 192.48 M 767.68 257.69 C 764.13 261.60 765.00 268.65 769.62 271.37 C 777.08 275.83 788.10 272.83 791.84 264.82 C 793.78 261.51 792.70 257.51 792.96 253.88 C 787.98 253.93 782.99 253.76 778.01 253.98 C 774.35 254.23 770.33 254.92 767.68 257.69 Z" />
<path fill="#ffffff" opacity="1.00" d=" M 989.22 182.14 C 1005.78 177.42 1023.93 177.89 1040.06 184.04 C 1053.85 189.25 1065.84 199.62 1071.99 213.15 C 1077.78 225.35 1078.51 239.23 1077.11 252.48 C 1049.35 252.55 1021.60 252.45 993.84 252.52 C 996.04 258.10 1000.37 262.89 1006.09 264.95 C 1018.51 269.40 1033.02 266.58 1042.96 257.91 C 1051.58 266.70 1060.21 275.48 1068.82 284.27 C 1059.39 294.67 1045.88 300.53 1032.14 302.39 C 1012.97 305.00 992.54 303.20 975.32 293.84 C 962.26 286.84 951.75 274.96 947.16 260.81 C 941.63 243.99 943.29 224.69 952.51 209.47 C 960.57 196.00 974.26 186.45 989.22 182.14 M 1002.20 215.14 C 997.10 217.79 994.22 223.18 992.97 228.60 C 1005.86 228.64 1018.75 228.65 1031.63 228.59 C 1030.56 224.44 1028.81 220.28 1025.51 217.40 C 1019.24 211.89 1009.46 211.34 1002.20 215.14 Z" />
<path fill="#ffffff" opacity="1.00" d=" M 1135.06 194.00 C 1144.67 183.05 1159.70 178.85 1173.85 178.96 C 1173.85 193.67 1173.84 208.38 1173.85 223.08 C 1164.75 221.90 1154.55 221.13 1146.54 226.45 C 1139.88 230.91 1137.53 239.37 1137.52 247.00 C 1137.49 264.99 1137.49 282.98 1137.52 300.97 C 1121.01 301.04 1104.51 300.98 1088.00 301.00 C 1088.01 261.16 1087.98 221.33 1088.01 181.49 C 1103.69 181.50 1119.36 181.51 1135.04 181.48 C 1135.12 185.65 1135.10 189.83 1135.06 194.00 Z" />
</g>
<g id="#000000ff">
<path fill="#000000" opacity="1.00" d=" M 236.03 29.35 C 237.42 26.79 239.09 24.00 242.10 23.17 C 246.99 21.23 253.02 24.79 253.94 29.91 C 255.33 35.27 250.54 41.14 245.01 40.86 C 241.74 41.18 239.44 38.64 236.96 37.00 C 228.23 39.86 220.51 46.06 216.24 54.25 C 212.18 61.70 210.79 70.30 210.70 78.70 C 215.34 79.31 219.94 80.17 224.43 81.52 C 234.04 71.23 247.09 63.78 261.30 62.68 C 262.85 59.24 265.87 55.84 269.98 56.06 C 274.88 55.60 279.54 60.04 279.36 64.95 C 279.70 70.36 274.19 75.10 268.88 74.06 C 266.08 73.80 264.32 71.44 262.06 70.11 C 250.66 70.03 239.14 75.16 231.87 83.99 C 238.09 87.62 244.58 91.09 249.85 96.14 C 264.62 109.33 273.10 129.20 272.36 149.00 C 271.94 168.84 262.08 187.94 246.73 200.39 C 260.06 209.03 270.49 222.12 275.63 237.18 C 281.01 252.81 280.71 270.31 274.77 285.73 C 272.92 290.86 269.67 295.48 268.88 300.96 C 267.61 309.17 269.49 317.46 271.25 325.46 C 273.89 337.54 279.23 348.76 284.50 359.86 C 284.24 359.83 283.73 359.76 283.47 359.73 C 279.61 356.13 276.14 352.12 272.02 348.81 C 261.17 340.42 248.33 334.91 235.10 331.51 C 229.92 329.97 224.42 329.70 219.10 330.56 C 203.15 333.05 186.38 329.85 172.49 321.62 C 159.13 313.78 148.46 301.45 142.62 287.10 C 137.32 274.23 136.19 259.81 138.77 246.17 C 121.50 250.22 102.75 249.08 86.62 241.44 C 75.07 236.05 64.71 227.33 58.94 215.81 C 54.64 207.26 53.74 196.73 58.00 187.98 C 62.84 177.87 72.72 171.24 82.92 167.36 C 76.22 154.79 72.90 139.95 76.05 125.86 C 77.93 117.26 82.84 109.06 90.45 104.40 C 97.71 99.84 106.66 98.80 115.03 99.92 C 125.90 101.25 135.98 106.22 144.85 112.45 C 156.75 91.91 179.69 78.41 203.48 78.37 C 203.88 64.30 208.26 49.64 218.68 39.71 C 223.55 34.93 229.64 31.62 236.03 29.35 M 191.72 90.50 L 191.50 90.85 C 166.80 95.70 147.39 118.98 146.48 144.06 C 145.57 159.67 151.52 175.47 162.40 186.69 C 173.68 198.63 190.29 205.43 206.73 204.43 C 225.24 203.81 242.86 193.22 252.63 177.57 C 260.57 165.13 263.52 149.55 260.33 135.11 C 256.64 116.88 243.46 100.96 226.30 93.81 C 215.47 89.11 203.24 88.28 191.72 90.50 M 90.24 119.40 C 81.87 134.05 86.07 152.56 94.94 165.97 C 104.97 181.72 122.41 191.10 140.17 195.37 C 146.29 196.77 152.50 197.80 158.76 198.37 C 152.56 192.72 147.12 186.18 143.31 178.67 C 134.84 162.68 133.30 143.22 138.86 126.02 C 139.12 124.85 139.83 123.69 139.63 122.46 C 131.47 115.88 121.47 111.29 110.94 110.42 C 103.14 109.72 94.78 112.80 90.24 119.40 M 71.14 187.58 C 67.04 192.48 64.82 199.18 66.70 205.48 C 70.04 217.58 80.39 226.42 91.41 231.56 C 107.32 239.11 126.04 239.33 142.58 233.68 C 143.33 231.95 144.09 230.23 144.86 228.51 L 144.98 228.54 C 148.40 221.32 153.35 214.93 158.95 209.27 C 150.28 208.56 141.66 207.09 133.27 204.79 C 116.21 200.12 100.13 190.79 89.09 176.78 C 82.42 179.05 76.08 182.48 71.14 187.58 M 176.10 209.51 C 173.99 211.00 171.92 212.53 169.89 214.13 C 155.43 226.19 147.11 245.20 148.35 264.02 C 154.36 255.03 161.54 246.83 169.79 239.83 C 180.36 231.20 192.56 224.49 205.69 220.71 C 220.07 216.35 235.26 215.93 250.15 216.83 C 246.03 213.10 241.52 209.84 236.71 207.07 C 218.25 217.06 195.30 218.04 176.10 209.51 M 216.90 232.49 C 200.34 235.76 185.08 244.34 173.12 256.17 C 165.21 264.61 157.75 273.98 153.58 284.84 C 155.85 290.41 159.43 295.34 163.19 299.99 C 168.54 290.86 174.67 282.00 182.59 274.90 L 182.37 274.59 C 189.18 268.52 196.26 262.65 204.33 258.31 C 223.20 247.64 245.47 244.03 266.92 245.86 C 265.76 241.60 264.22 237.44 262.37 233.43 C 247.47 230.23 231.89 229.52 216.90 232.49 M 238.25 261.10 C 220.42 264.13 203.87 273.25 191.25 286.12 C 184.63 293.29 178.64 301.14 174.28 309.90 C 192.23 322.36 217.19 324.20 236.41 313.54 C 243.10 309.76 249.08 304.76 254.11 298.96 C 263.63 288.52 268.61 274.41 268.64 260.36 C 258.54 259.31 248.27 259.31 238.25 261.10 Z" />
<path fill="#000000" opacity="1.00" d=" M 193.40 126.53 C 200.11 124.04 208.39 126.95 211.62 133.44 C 215.86 140.84 212.00 151.31 203.96 154.15 C 196.75 157.23 187.74 153.26 184.93 146.00 C 181.65 138.63 185.80 129.17 193.40 126.53 M 193.31 130.51 C 188.79 132.05 187.38 138.77 191.18 141.82 C 194.68 145.32 201.55 142.98 202.19 138.07 C 203.33 133.23 197.91 128.67 193.31 130.51 Z" />
<path fill="#000000" opacity="1.00" d=" M 227.39 135.48 C 234.23 132.79 243.21 136.59 244.90 144.03 C 247.21 151.14 242.47 159.55 235.08 160.95 C 228.55 162.54 220.98 158.64 219.38 151.93 C 217.32 145.42 220.93 137.80 227.39 135.48 M 225.62 139.69 C 222.41 142.09 222.69 147.77 226.42 149.52 C 230.09 151.82 235.62 148.36 234.92 144.00 C 235.02 139.54 229.01 136.82 225.62 139.69 Z" />
</g>
<g id="#f6af00ff">
<path fill="#f6af00" opacity="1.00" d=" M 191.72 90.50 C 203.24 88.28 215.47 89.11 226.30 93.81 C 243.46 100.96 256.64 116.88 260.33 135.11 C 263.52 149.55 260.57 165.13 252.63 177.57 C 242.86 193.22 225.24 203.81 206.73 204.43 C 201.71 200.06 196.16 196.31 191.44 191.59 C 181.02 181.59 173.15 168.48 171.18 154.02 C 168.81 137.59 173.81 120.98 181.66 106.66 C 184.57 101.16 188.27 96.15 191.50 90.85 L 191.72 90.50 M 193.40 126.53 C 185.80 129.17 181.65 138.63 184.93 146.00 C 187.74 153.26 196.75 157.23 203.96 154.15 C 212.00 151.31 215.86 140.84 211.62 133.44 C 208.39 126.95 200.11 124.04 193.40 126.53 M 227.39 135.48 C 220.93 137.80 217.32 145.42 219.38 151.93 C 220.98 158.64 228.55 162.54 235.08 160.95 C 242.47 159.55 247.21 151.14 244.90 144.03 C 243.21 136.59 234.23 132.79 227.39 135.48 Z" />
<path fill="#f6af00" opacity="1.00" d=" M 176.10 209.51 C 195.30 218.04 218.25 217.06 236.71 207.07 C 241.52 209.84 246.03 213.10 250.15 216.83 C 235.26 215.93 220.07 216.35 205.69 220.71 C 192.56 224.49 180.36 231.20 169.79 239.83 C 168.70 231.29 169.32 222.68 169.89 214.13 C 171.92 212.53 173.99 211.00 176.10 209.51 Z" />
<path fill="#f6af00" opacity="1.00" d=" M 216.90 232.49 C 231.89 229.52 247.47 230.23 262.37 233.43 C 264.22 237.44 265.76 241.60 266.92 245.86 C 245.47 244.03 223.20 247.64 204.33 258.31 C 196.26 262.65 189.18 268.52 182.37 274.59 C 178.23 269.04 175.83 262.48 173.12 256.17 C 185.08 244.34 200.34 235.76 216.90 232.49 Z" />
<path fill="#f6af00" opacity="1.00" d=" M 238.25 261.10 C 248.27 259.31 258.54 259.31 268.64 260.36 C 268.61 274.41 263.63 288.52 254.11 298.96 C 249.08 304.76 243.10 309.76 236.41 313.54 C 219.79 307.48 203.49 299.18 191.25 286.12 C 203.87 273.25 220.42 264.13 238.25 261.10 Z" />
</g>
<g id="#e96629ff">
<path fill="#e96629" opacity="1.00" d=" M 146.48 144.06 C 147.39 118.98 166.80 95.70 191.50 90.85 C 188.27 96.15 184.57 101.16 181.66 106.66 C 173.81 120.98 168.81 137.59 171.18 154.02 C 173.15 168.48 181.02 181.59 191.44 191.59 C 196.16 196.31 201.71 200.06 206.73 204.43 C 190.29 205.43 173.68 198.63 162.40 186.69 C 151.52 175.47 145.57 159.67 146.48 144.06 Z" />
<path fill="#e96629" opacity="1.00" d=" M 148.35 264.02 C 147.11 245.20 155.43 226.19 169.89 214.13 C 169.32 222.68 168.70 231.29 169.79 239.83 C 161.54 246.83 154.36 255.03 148.35 264.02 Z" />
<path fill="#e96629" opacity="1.00" d=" M 153.58 284.84 C 157.75 273.98 165.21 264.61 173.12 256.17 C 175.83 262.48 178.23 269.04 182.37 274.59 L 182.59 274.90 C 174.67 282.00 168.54 290.86 163.19 299.99 C 159.43 295.34 155.85 290.41 153.58 284.84 Z" />
<path fill="#e96629" opacity="1.00" d=" M 174.28 309.90 C 178.64 301.14 184.63 293.29 191.25 286.12 C 203.49 299.18 219.79 307.48 236.41 313.54 C 217.19 324.20 192.23 322.36 174.28 309.90 Z" />
</g>
<g id="#c2d5c5ff">
<path fill="#c2d5c5" opacity="1.00" d=" M 90.24 119.40 C 94.78 112.80 103.14 109.72 110.94 110.42 C 121.47 111.29 131.47 115.88 139.63 122.46 C 139.83 123.69 139.12 124.85 138.86 126.02 C 133.30 143.22 134.84 162.68 143.31 178.67 C 147.12 186.18 152.56 192.72 158.76 198.37 C 152.50 197.80 146.29 196.77 140.17 195.37 C 139.12 184.80 133.95 175.31 128.87 166.21 C 120.61 152.85 110.73 140.54 99.98 129.11 C 97.00 125.61 93.86 122.24 90.24 119.40 Z" />
<path fill="#c2d5c5" opacity="1.00" d=" M 71.14 187.58 C 76.08 182.48 82.42 179.05 89.09 176.78 C 100.13 190.79 116.21 200.12 133.27 204.79 C 141.66 207.09 150.28 208.56 158.95 209.27 C 153.35 214.93 148.40 221.32 144.98 228.54 L 144.86 228.51 C 138.79 226.46 132.23 226.80 126.14 224.83 C 104.41 218.69 85.94 204.25 71.14 187.58 Z" />
</g>
<g id="#d7e9d8ff">
<path fill="#d7e9d8" opacity="1.00" d=" M 94.94 165.97 C 86.07 152.56 81.87 134.05 90.24 119.40 C 93.86 122.24 97.00 125.61 99.98 129.11 C 110.73 140.54 120.61 152.85 128.87 166.21 C 133.95 175.31 139.12 184.80 140.17 195.37 C 122.41 191.10 104.97 181.72 94.94 165.97 Z" />
<path fill="#d7e9d8" opacity="1.00" d=" M 71.14 187.58 C 85.94 204.25 104.41 218.69 126.14 224.83 C 132.23 226.80 138.79 226.46 144.86 228.51 C 144.09 230.23 143.33 231.95 142.58 233.68 C 126.04 239.33 107.32 239.11 91.41 231.56 C 80.39 226.42 70.04 217.58 66.70 205.48 C 64.82 199.18 67.04 192.48 71.14 187.58 Z" />
</g>
</svg>
