<?xml version="1.0" encoding="UTF-8"?> <svg xmlns="http://www.w3.org/2000/svg" width="284" height="39" viewBox="0 0 284 39" fill="none"><path d="M0 38.6376H6.73782L12.0285 25.8915H5.29067L0 38.6376ZM24.0725 13.1139L13.4912 38.6376H20.229L30.8104 13.1139H24.0725ZM42.8389 0.367729L26.9669 38.6376H33.7202L49.5922 0.367729H42.8389ZM84.215 0.541039H70.2103V38.5431H84.215C95.9945 38.5431 104.133 30.24 104.133 19.4948C104.133 8.74961 95.9945 0.541039 84.215 0.541039ZM84.215 32.4615H76.8392V6.62263H84.215C85.9329 6.52431 87.652 6.79129 89.2618 7.40638C90.8716 8.02148 92.3364 8.97106 93.5618 10.194C94.7872 11.4169 95.7462 12.8861 96.3769 14.507C97.0076 16.1279 97.2961 17.8645 97.2238 19.6051C97.2238 27.0889 92.0888 32.4615 84.215 32.4615ZM161.163 16.5013C154.052 14.7682 152.278 13.4605 152.278 10.4827C152.278 7.93033 154.519 5.92939 158.378 5.92939C162.097 6.06681 165.667 7.43993 168.539 9.83673L172.071 4.73198C168.244 1.56855 163.426 -0.107563 158.487 0.00535476C151.049 0.00535476 145.696 4.46414 145.696 11.0341C145.696 18.0926 150.193 20.4874 158.144 22.4253C165.1 24.0008 166.594 25.5764 166.594 28.3021C166.594 31.0278 164.042 33.1232 159.965 33.1232C155.544 33.0786 151.309 31.3127 148.139 28.1918L144.171 32.9184C148.43 36.8351 153.978 39.0035 159.732 39C167.59 39 173.114 34.7618 173.114 27.5931C173.207 21.3382 169.084 18.4707 161.163 16.5013ZM176.382 6.73292H188.254V38.5431H194.899V6.73292H206.772V0.541039H176.382V6.73292ZM242.748 12.6097C242.748 5.15737 237.364 0.541039 228.744 0.541039H212.062V38.5431H218.645V25.3085H226.876L236.088 38.5431H243.869L233.754 24.1584C238.983 22.6931 242.748 18.9118 242.748 12.6097ZM218.645 19.3845V6.62263H228.215C233.085 6.62263 235.995 8.79688 235.995 12.9248C235.995 16.8321 232.992 19.3215 228.215 19.3215L218.645 19.3845ZM47.8961 8.48177L54.4472 24.2687H41.345L38.7775 30.4606H57.0147L60.3914 38.6376H67.1448L51.2728 0.367729L47.8961 8.48177ZM119.382 0.367729L103.51 38.6376H110.248L113.594 30.4606H131.878L135.254 38.6376H142.008L126.136 0.367729H119.382ZM116.27 24.2844L122.821 8.52903L129.372 24.2844H116.27ZM268.097 0.367729H261.421L245.549 38.6376H252.287L255.679 30.4606H273.87L277.262 38.6376H284L268.097 0.367729ZM258.185 24.2844L264.736 8.52903L271.271 24.2844H258.185Z" fill="#F9423A"></path></svg> 