<svg width="176" height="44" viewBox="0 0 176 44" fill="none" xmlns="http://www.w3.org/2000/svg">
	<path fill-rule="evenodd" clip-rule="evenodd" d="M59.7853 30.5488L59.0227 28.335H53.9744L53.1718 30.5488H48.4343L54.7974 14.8847H58.2298L64.553 30.5488H59.7853ZM56.5234 20.6079L55.2183 24.8053H57.8383L56.5234 20.6079ZM65.0946 30.5488V14.8847H69.4903V26.6699H74.0573V30.5488H65.0946ZM83.9237 30.8478C81.5615 30.8478 79.5647 30.0553 77.9317 28.4696C76.2988 26.8838 75.4831 24.9479 75.4831 22.662C75.4831 20.3761 76.3061 18.4395 77.9521 16.8942C79.5982 15.349 81.6423 14.5759 84.0844 14.5759C85.8708 14.5759 87.5119 15.1245 89.007 16.2209C90.5022 17.3172 91.4949 18.7272 91.9827 20.4483H87.1147C86.3985 19.1258 85.3177 18.4638 83.8732 18.4638C82.7557 18.4638 81.7989 18.8657 81.0028 19.6704C80.2597 20.4215 79.8886 21.3655 79.8886 22.5024C79.8886 23.8783 80.2785 24.9666 81.0574 25.768C81.8364 26.5694 82.8691 26.9697 84.1537 26.9697C85.7598 26.9697 86.79 26.3182 87.2452 25.0152H82.4376V21.4555H92.3334C92.3734 22.0535 92.3937 22.3963 92.3937 22.4822C92.3937 24.8483 91.5821 26.8343 89.9598 28.4396C88.3374 30.0448 86.3251 30.8478 83.9229 30.8478H83.9237ZM102.201 30.8478C99.7985 30.8478 97.796 30.0651 96.194 28.4995C94.592 26.934 93.7902 24.9714 93.7902 22.6118C93.7902 20.2522 94.6034 18.4557 96.2291 16.904C97.8547 15.3522 99.8458 14.5759 102.201 14.5759C104.556 14.5759 106.513 15.3636 108.132 16.9388C109.751 18.514 110.561 20.4353 110.561 22.7017C110.561 24.9682 109.751 26.9097 108.132 28.485C106.513 30.0602 104.536 30.8478 102.201 30.8478ZM102.201 18.4646C101.056 18.4646 100.103 18.8649 99.3401 19.6663C98.5774 20.4677 98.1957 21.4725 98.1957 22.6823C98.1957 23.8921 98.579 24.9261 99.345 25.7437C100.111 26.5613 101.063 26.9697 102.201 26.9697C103.339 26.9697 104.275 26.5645 105.031 25.7534C105.787 24.9423 106.165 23.9188 106.165 22.6823C106.165 21.4458 105.78 20.5001 105.011 19.6858C104.241 18.8714 103.304 18.4646 102.201 18.4646ZM118.792 18.7636V30.5488H114.385V18.7636H111.334V14.8847H121.842V18.7636H118.791H118.792ZM122.987 30.5488V14.8847H132.05V18.7636H127.232V20.6581H131.889V24.5266H127.232V26.6707H132.05V30.5496H122.987V30.5488ZM150.637 30.8478H142.216C139.814 30.8478 137.812 30.0651 136.21 28.4995C134.608 26.934 133.806 24.9714 133.806 22.6118C133.806 20.2522 134.619 18.4557 136.245 16.904C137.87 15.3522 139.861 14.5759 142.216 14.5759C144.571 14.5759 146.529 15.3636 148.148 16.9388C149.767 18.514 150.577 20.4353 150.577 22.7017C150.577 24.3434 150.128 25.836 149.232 27.1787C149.326 27.152 149.493 27.0855 149.734 26.9794H150.637V30.8478H150.637ZM146.181 22.6815C146.181 21.4984 145.796 20.4993 145.027 19.685C144.258 18.8706 143.321 18.4638 142.217 18.4638C141.113 18.4638 140.119 18.8641 139.356 19.6655C138.594 20.4669 138.212 21.4717 138.212 22.6815C138.212 23.8913 138.595 24.9252 139.361 25.7429C140.127 26.5605 141.079 26.9689 142.217 26.9689C143.355 26.9689 144.291 26.5637 145.047 25.7526C145.804 24.9415 146.181 23.918 146.181 22.6815ZM163.143 29.1421C162.019 30.279 160.504 30.847 158.597 30.847C156.69 30.847 155.181 30.2887 154.03 29.1721C153.421 28.5741 153 27.9194 152.765 27.2079C152.531 26.4964 152.414 25.5362 152.414 24.3264V14.8838H156.81V24.3264C156.81 25.2899 156.956 25.9778 157.251 26.3903C157.525 26.7825 157.974 26.9786 158.596 26.9786C159.178 26.9786 159.613 26.8076 159.901 26.4648C160.189 26.1221 160.333 25.4098 160.333 24.3264V14.8838H164.739V24.3264C164.739 25.4763 164.618 26.4138 164.377 27.1382C164.137 27.8829 163.725 28.5506 163.143 29.1421ZM166.937 30.548V14.8838H176V18.7628H171.183V20.6573H175.839V24.5258H171.183V26.6699H176V30.5488H166.937V30.548Z" fill="#323232"/>
	<path fill-rule="evenodd" clip-rule="evenodd" d="M22.1457 44C9.91459 44 0 34.1506 0 22C0 9.84936 9.91459 0 22.1457 0C34.3768 0 44.2914 9.84936 44.2914 22C44.2914 25.0176 43.6796 27.8926 42.5736 30.5107C41.1837 30.6955 37.6371 31.0277 35.956 29.8876C34.3727 28.8139 34.5408 26.6407 34.7259 25.6124C35.0587 24.4658 35.2374 23.2536 35.2374 22C35.2374 14.8174 29.3759 8.99448 22.1457 8.99448C14.9155 8.99448 9.05404 14.8174 9.05404 22C9.05404 29.1826 14.9155 35.0055 22.1457 35.0055C25.5071 35.0055 28.5716 33.7471 30.8898 31.6792C31.4175 32.8193 32.3727 33.8638 33.7961 34.5858C35.2202 35.3078 37.7709 35.5452 39.5376 35.6206C35.4821 40.7247 29.1989 44 22.1449 44H22.1457Z" fill="url(#paint0_linear_3_3084)"/>
	<path d="M22.1865 29.9005C26.5562 29.9005 30.0986 26.3814 30.0986 22.0405C30.0986 17.6995 26.5562 14.1804 22.1865 14.1804C17.8168 14.1804 14.2744 17.6995 14.2744 22.0405C14.2744 26.3814 17.8168 29.9005 22.1865 29.9005Z" fill="url(#paint1_linear_3_3084)"/>
	<path d="M100.656 42.7036V34.6272H101.732V42.7036H100.656Z" fill="black"/>
	<path d="M103.5 42.7036V36.8523H104.398V37.6845C104.83 37.0419 105.455 36.7202 106.272 36.7202C106.627 36.7202 106.953 36.7834 107.251 36.9106C107.549 37.037 107.771 37.204 107.919 37.409C108.067 37.6148 108.17 37.8587 108.23 38.1415C108.267 38.3254 108.285 38.6463 108.285 39.1058V42.7036H107.287V39.1447C107.287 38.7403 107.248 38.4389 107.17 38.2387C107.093 38.0386 106.955 37.879 106.757 37.759C106.559 37.6399 106.327 37.58 106.061 37.58C105.636 37.58 105.269 37.7145 104.96 37.9819C104.651 38.2501 104.496 38.759 104.496 39.5077V42.7028H103.498L103.5 42.7036Z" fill="black"/>
	<path d="M109.817 42.7036V36.8523H110.715V37.6845C111.147 37.0419 111.772 36.7202 112.589 36.7202C112.944 36.7202 113.27 36.7834 113.568 36.9106C113.866 37.037 114.088 37.204 114.236 37.409C114.384 37.6148 114.487 37.8587 114.547 38.1415C114.583 38.3254 114.602 38.6463 114.602 39.1058V42.7036H113.604V39.1447C113.604 38.7403 113.565 38.4389 113.487 38.2387C113.41 38.0386 113.272 37.879 113.074 37.759C112.876 37.6399 112.644 37.58 112.378 37.58C111.953 37.58 111.586 37.7145 111.277 37.9819C110.967 38.2501 110.813 38.759 110.813 39.5077V42.7028H109.815L109.817 42.7036Z" fill="black"/>
	<path d="M115.762 39.7783C115.762 38.6949 116.065 37.8927 116.671 37.3708C117.178 36.9373 117.795 36.7209 118.524 36.7209C119.334 36.7209 119.995 36.9843 120.509 37.5118C121.023 38.0385 121.28 38.767 121.28 39.6964C121.28 40.4492 121.166 41.0415 120.939 41.4734C120.711 41.9053 120.38 42.24 119.946 42.479C119.511 42.7181 119.037 42.8372 118.524 42.8372C117.699 42.8372 117.033 42.5746 116.524 42.0496C116.016 41.5245 115.762 40.7677 115.762 39.7799V39.7783ZM116.788 39.7783C116.788 40.5278 116.953 41.0885 117.281 41.4613C117.61 41.834 118.024 42.0204 118.524 42.0204C119.023 42.0204 119.431 41.8332 119.76 41.4588C120.089 41.0845 120.254 40.5132 120.254 39.745C120.254 39.0214 120.088 38.4737 119.757 38.1009C119.426 37.7282 119.015 37.5418 118.523 37.5418C118.031 37.5418 117.609 37.7274 117.281 38.0985C116.952 38.4696 116.787 39.0295 116.787 39.7791L116.788 39.7783Z" fill="black"/>
	<path d="M124.086 42.7036L121.846 36.8523H122.9L124.164 40.3561C124.301 40.7345 124.427 41.1275 124.541 41.5351C124.63 41.2264 124.754 40.8561 124.913 40.4225L126.222 36.8523H127.248L125.019 42.7036H124.087H124.086Z" fill="black"/>
	<path d="M131.972 41.9815C131.603 42.2935 131.246 42.5139 130.904 42.6427C130.563 42.7715 130.195 42.8356 129.803 42.8356C129.156 42.8356 128.659 42.6784 128.311 42.3648C127.964 42.0504 127.79 41.6493 127.79 41.1606C127.79 40.8738 127.855 40.6129 127.987 40.3754C128.118 40.138 128.29 39.9484 128.502 39.805C128.715 39.6616 128.954 39.5538 129.22 39.4801C129.416 39.429 129.712 39.3788 130.107 39.331C130.913 39.2353 131.507 39.1219 131.888 38.989C131.891 38.8529 131.894 38.767 131.894 38.7297C131.894 38.3254 131.799 38.0409 131.611 37.8756C131.355 37.652 130.977 37.5394 130.474 37.5394C130.004 37.5394 129.657 37.6212 129.434 37.7849C129.21 37.9486 129.045 38.2378 128.937 38.6527L127.961 38.5206C128.049 38.1058 128.195 37.7703 128.399 37.515C128.602 37.2598 128.896 37.0629 129.28 36.9251C129.664 36.7874 130.11 36.7185 130.617 36.7185C131.125 36.7185 131.528 36.7777 131.843 36.8952C132.157 37.0126 132.389 37.1609 132.536 37.3384C132.684 37.5167 132.788 37.7411 132.847 38.0134C132.881 38.1827 132.897 38.4874 132.897 38.9282V40.2507C132.897 41.1728 132.918 41.7554 132.961 42.0001C133.003 42.2448 133.087 42.4782 133.213 42.7027H132.17C132.067 42.4968 132 42.2562 131.97 41.9807L131.972 41.9815ZM131.889 39.7669C131.527 39.9136 130.983 40.0384 130.258 40.1413C129.848 40.2004 129.558 40.2661 129.388 40.3398C129.217 40.4135 129.086 40.5205 128.994 40.6623C128.902 40.8041 128.855 40.9605 128.855 41.1331C128.855 41.3973 128.956 41.6177 129.158 41.7943C129.359 41.9701 129.655 42.0585 130.042 42.0585C130.43 42.0585 130.769 41.975 131.068 41.8081C131.368 41.6412 131.588 41.4126 131.728 41.1226C131.835 40.8989 131.889 40.5683 131.889 40.1307V39.7669Z" fill="black"/>
	<path d="M136.625 41.8162L136.77 42.6921C136.488 42.7505 136.237 42.7805 136.015 42.7805C135.653 42.7805 135.372 42.7237 135.173 42.6095C134.973 42.496 134.833 42.3461 134.751 42.1606C134.669 41.975 134.629 41.5852 134.629 40.9897V37.6236H133.897V36.8522H134.629V35.4034L135.621 34.8086V36.8522H136.625V37.6236H135.621V41.0448C135.621 41.3276 135.638 41.5091 135.674 41.5901C135.709 41.6711 135.767 41.7352 135.846 41.783C135.926 41.8308 136.04 41.8543 136.187 41.8543C136.298 41.8543 136.444 41.8413 136.625 41.8154V41.8162Z" fill="black"/>
	<path d="M137.606 35.7673V34.6272H138.605V35.7673H137.606ZM137.606 42.7036V36.8523H138.605V42.7036H137.606Z" fill="black"/>
	<path d="M139.753 39.7783C139.753 38.6949 140.056 37.8927 140.662 37.3708C141.169 36.9373 141.786 36.7209 142.515 36.7209C143.325 36.7209 143.986 36.9843 144.5 37.5118C145.014 38.0385 145.271 38.767 145.271 39.6964C145.271 40.4492 145.158 41.0415 144.93 41.4734C144.702 41.9053 144.372 42.24 143.937 42.479C143.503 42.7181 143.029 42.8372 142.515 42.8372C141.69 42.8372 141.024 42.5746 140.516 42.0496C140.007 41.5245 139.753 40.7677 139.753 39.7799V39.7783ZM140.779 39.7783C140.779 40.5278 140.944 41.0885 141.273 41.4613C141.601 41.834 142.016 42.0204 142.515 42.0204C143.014 42.0204 143.423 41.8332 143.751 41.4588C144.08 41.0845 144.245 40.5132 144.245 39.745C144.245 39.0214 144.079 38.4737 143.749 38.1009C143.418 37.7282 143.007 37.5418 142.515 37.5418C142.023 37.5418 141.601 37.7274 141.273 38.0985C140.943 38.4696 140.779 39.0295 140.779 39.7791V39.7783Z" fill="black"/>
	<path d="M146.441 42.7036V36.8523H147.339V37.6845C147.772 37.0419 148.396 36.7202 149.214 36.7202C149.569 36.7202 149.895 36.7834 150.193 36.9106C150.49 37.037 150.713 37.204 150.861 37.409C151.008 37.6148 151.112 37.8587 151.171 38.1415C151.208 38.3254 151.227 38.6463 151.227 39.1058V42.7036H150.228V39.1447C150.228 38.7403 150.189 38.4389 150.112 38.2387C150.034 38.0386 149.896 37.879 149.699 37.759C149.501 37.6399 149.269 37.58 149.003 37.58C148.578 37.58 148.211 37.7145 147.902 37.9819C147.593 38.2501 147.439 38.759 147.439 39.5077V42.7028H146.44L146.441 42.7036Z" fill="black"/>
	<path d="M156.074 42.7036V34.6272H157.15V37.9438H161.376V34.6272H162.452V42.7036H161.376V38.8967H157.15V42.7036H156.074Z" fill="black"/>
	<path d="M167.976 42.7036V41.8438C167.517 42.505 166.894 42.8356 166.107 42.8356C165.759 42.8356 165.435 42.7692 165.134 42.6371C164.833 42.505 164.608 42.3389 164.462 42.1388C164.316 41.9386 164.214 41.6931 164.155 41.403C164.114 41.2085 164.094 40.8998 164.094 40.4776V36.8523H165.092V40.0976C165.092 40.6154 165.113 40.9646 165.153 41.1445C165.216 41.4054 165.349 41.6105 165.553 41.7587C165.756 41.9078 166.008 41.9816 166.308 41.9816C166.607 41.9816 166.888 41.9054 167.15 41.7531C167.413 41.6007 167.599 41.3933 167.707 41.1307C167.817 40.8682 167.87 40.4874 167.87 39.9874V36.8523H168.869V42.7036H167.976Z" fill="black"/>
	<path d="M171.353 42.7036H170.427V34.6272H171.426V37.5087C171.847 36.9836 172.385 36.721 173.04 36.721C173.402 36.721 173.745 36.794 174.068 36.939C174.391 37.0841 174.658 37.2883 174.867 37.5508C175.076 37.8133 175.24 38.1302 175.358 38.5013C175.476 38.8724 175.536 39.2687 175.536 39.6917C175.536 40.694 175.286 41.4695 174.787 42.0164C174.288 42.5634 173.689 42.8373 172.99 42.8373C172.291 42.8373 171.749 42.5488 171.354 41.9727V42.7052L171.353 42.7036ZM171.342 39.7338C171.342 40.4355 171.438 40.942 171.63 41.2547C171.944 41.7652 172.37 42.0205 172.906 42.0205C173.342 42.0205 173.719 41.8325 174.037 41.4557C174.356 41.0789 174.515 40.5182 174.515 39.7727C174.515 39.0272 174.362 38.4446 174.057 38.0816C173.752 37.7185 173.383 37.5362 172.951 37.5362C172.519 37.5362 172.138 37.7242 171.82 38.101C171.502 38.4778 171.342 39.0223 171.342 39.7346L171.342 39.7338Z" fill="black"/>
	<defs>
	<linearGradient id="paint0_linear_3_3084" x1="6.48628" y1="6.44361" x2="37.5984" y2="37.7618" gradientUnits="userSpaceOnUse">
	<stop stop-color="#FF795A"/>
	<stop offset="1" stop-color="#FF4669"/>
	</linearGradient>
	<linearGradient id="paint1_linear_3_3084" x1="16.5918" y1="16.4825" x2="27.7074" y2="27.6718" gradientUnits="userSpaceOnUse">
	<stop stop-color="#FF795A"/>
	<stop offset="1" stop-color="#FF4669"/>
	</linearGradient>
	</defs>
	</svg>
	