<svg width="151" height="18" viewBox="0 0 151 18" fill="none" xmlns="http://www.w3.org/2000/svg">
<path d="M51.3635 17.7047V2.29914H57.5467V0H42.1562V2.29914H48.3272V17.7047H51.3635Z" fill="#202C39"/>
<path d="M60.7151 17.7049V10.8198C60.7151 8.39762 61.6616 7.25422 63.8252 7.25422H65.583V4.95508H63.862C62.1288 4.95508 61.2928 5.59441 60.8503 6.62719H60.6045V5.00425H57.8018V17.7049H60.7151Z" fill="#202C39"/>
<path d="M72.1067 17.9755C74.7251 17.9755 75.7576 16.7338 76.1879 16.0452H76.4337V17.7051H79.2365V5.00439H76.3231V12.1109C76.3231 14.6928 74.7251 15.7748 72.9057 15.7748C71.2954 15.7748 70.2259 14.9264 70.2259 13.0944V5.00439H67.3125V13.3773C67.3125 16.4141 69.2671 17.9755 72.1067 17.9755Z" fill="#202C39"/>
<path d="M87.309 17.9874C90.9968 17.9874 92.8284 16.303 92.8284 14.0285C92.8284 11.7416 91.0951 10.8072 88.5629 10.3768L86.2149 9.98338C85.1086 9.79895 84.3341 9.40551 84.3341 8.39733C84.3341 7.37687 85.2684 6.74985 86.9893 6.74985C88.7227 6.74985 89.9028 7.35229 90.0257 8.91376H92.6809V8.5449C92.3981 6.24576 90.4191 4.72119 86.9525 4.72119C83.4983 4.72119 81.5314 6.24575 81.5314 8.50803C81.5314 10.7457 83.1418 11.7539 85.5266 12.1596L87.8744 12.553C89.2266 12.7743 90.0257 13.1555 90.0257 14.176C90.0257 15.2334 89.1038 15.9464 87.2844 15.9464C85.4651 15.9464 84.1006 15.2457 83.9653 13.6719H81.2979V14.0408C81.5191 16.3153 83.6212 17.9874 87.309 17.9874Z" fill="#202C39"/>
<path d="M102.967 17.7047V15.59H99.6484L99.4517 15.3932V7.05731H103.041V5.00407H99.4517V1.63525H96.5383V5.00407H93.625V7.05731H96.5383V14.4096C96.5383 16.5736 97.8414 17.7047 100.042 17.7047H102.967Z" fill="#202C39"/>
<path d="M110.266 17.9874C113.954 17.9874 115.785 16.303 115.785 14.0285C115.785 11.7416 114.052 10.8072 111.52 10.3768L109.172 9.98338C108.066 9.79895 107.291 9.40551 107.291 8.39733C107.291 7.37687 108.225 6.74985 109.946 6.74985C111.68 6.74985 112.86 7.35229 112.983 8.91376H115.638V8.5449C115.355 6.24576 113.376 4.72119 109.91 4.72119C106.455 4.72119 104.488 6.24575 104.488 8.50803C104.488 10.7457 106.099 11.7539 108.484 12.1596L110.831 12.553C112.184 12.7743 112.983 13.1555 112.983 14.176C112.983 15.2334 112.061 15.9464 110.241 15.9464C108.422 15.9464 107.058 15.2457 106.922 13.6719H104.255V14.0408C104.476 16.3153 106.578 17.9874 110.266 17.9874Z" fill="#202C39"/>
<path d="M123.699 4.70898C127.571 4.70898 130.287 7.02043 130.287 11.3482C130.287 15.6884 127.571 17.9998 123.699 17.9998C119.814 17.9998 117.098 15.6884 117.098 11.3482C117.098 7.02043 119.814 4.70898 123.699 4.70898ZM123.699 6.87289C121.499 6.87289 120.048 8.42201 120.048 11.3482C120.048 14.2867 121.499 15.8359 123.699 15.8359C125.9 15.8359 127.35 14.2867 127.35 11.3482C127.35 8.42201 125.9 6.87289 123.699 6.87289Z" fill="#202C39"/>
<path d="M136.836 17.7047V7.05728H140.849V5.00403H136.836V2.21308L137.033 2.01636H140.696V0H137.427C135.225 0 133.923 1.13113 133.923 3.29504V5.00403H131.01V7.05728H133.923V17.7047H136.836Z" fill="#202C39"/>
<path d="M150.182 17.7047V15.59H146.863L146.666 15.3932V7.05731H150.256V5.00407H146.666V1.63525H143.753V5.00407H140.84V7.05731H143.753V14.4096C143.753 16.5736 145.056 17.7047 147.257 17.7047H150.182Z" fill="#202C39"/>
<path opacity="0.3" fill-rule="evenodd" clip-rule="evenodd" d="M3.32119 17.0459C6.90795 19.1135 11.9153 17.1584 14.5057 12.679C17.096 8.19952 16.2882 2.8921 12.7016 0.824483C9.11484 -1.24313 4.1075 0.712037 1.51714 5.19147C-1.07322 9.67089 -0.265367 14.9783 3.32119 17.0459Z" fill="#8EC641"/>
<path opacity="0.6" fill-rule="evenodd" clip-rule="evenodd" d="M13.8388 17.0459C17.4255 19.1135 22.4329 17.1584 25.0232 12.679C27.6136 8.19952 26.8057 2.8921 23.2192 0.824483C19.6324 -1.24313 14.6251 0.712037 12.0347 5.19147C9.44436 9.67089 10.2522 14.9783 13.8388 17.0459Z" fill="#8EC641"/>
<path opacity="0.9" fill-rule="evenodd" clip-rule="evenodd" d="M24.3563 17.0459C27.9431 19.1135 32.9504 17.1584 35.5408 12.679C38.1312 8.19952 37.3233 2.8921 33.7368 0.824483C30.15 -1.24313 25.1427 0.712037 22.5523 5.19147C19.9619 9.67089 20.7698 14.9783 24.3563 17.0459Z" fill="#8EC641"/>
</svg>
