<?xml version="1.0" encoding="utf-8"?>
<!-- Generator: Adobe Illustrator 27.9.6, SVG Export Plug-In . SVG Version: 9.03 Build 54986)  -->
<svg version="1.1" id="Layer_1" xmlns="http://www.w3.org/2000/svg" xmlns:xlink="http://www.w3.org/1999/xlink" x="0px" y="0px"
	 viewBox="0 0 260 150" style="enable-background:new 0 0 260 150;" xml:space="preserve">
<style type="text/css">
	.st0{fill:#FFFFFF;}
</style>
<g>
	<g>
		<g>
			<g>
				<path class="st0" d="M54.3,94.5l-40.2,0c-2.9,0-5.3-0.9-7.2-2.8C5,89.9,4,87.5,4,84.7c0-1.8,0.4-3.5,1.3-5
					c0.8-1.5,2.1-2.7,3.6-3.5c1.5-0.9,3.2-1.3,5-1.3c1.7,0,3.2,0.3,4.6,1c1.3,0.6,2.5,1.6,3.4,2.8l1.4-1.1c-1-1.4-2.4-2.5-3.9-3.2
					c-1.4-0.7-2.9-1.1-4.5-1.2l-0.2,0l0-0.2c0.9-4.3,2.9-8,6.1-10.9c3.9-3.6,8.7-5.5,14.3-5.7c5.9-0.2,11.1,1.7,15.2,5.7
					c1.7,1.6,3.1,3.5,4.2,5.5c3.4,0.6,6.2,2.1,8.4,4.6c2.3,2.7,3.5,6,3.5,9.9C66.5,86.9,63.2,94.5,54.3,94.5z"/>
			</g>
		</g>
	</g>
	<g>
		<g>
			<path class="st0" d="M105.4,70.8V74c-1.6-1.3-3.3-2-5-2c-1.9,0-3.5,0.7-4.8,2c-1.3,1.4-2,3-2,5c0,1.9,0.7,3.6,2,4.9
				c1.3,1.3,2.9,2,4.8,2c1,0,1.8-0.2,2.5-0.5c0.4-0.2,0.8-0.4,1.2-0.6c0.4-0.3,0.8-0.6,1.3-1v3.4c-1.6,0.9-3.3,1.4-5,1.4
				c-2.6,0-4.9-0.9-6.7-2.8c-1.9-1.9-2.8-4.1-2.8-6.7c0-2.3,0.8-4.4,2.3-6.3c1.9-2.3,4.4-3.4,7.4-3.4
				C102.3,69.4,103.9,69.9,105.4,70.8z"/>
		</g>
		<g>
			<path class="st0" d="M119.1,69.8v15.8h5.4v2.6h-8.2V69.8H119.1z"/>
		</g>
		<g>
			<path class="st0" d="M132.8,78.9c0-2.6,1-4.8,2.9-6.7c1.9-1.9,4.2-2.8,6.8-2.8c2.6,0,4.9,0.9,6.8,2.8c1.9,1.9,2.8,4.1,2.8,6.8
				c0,2.7-0.9,4.9-2.8,6.7c-1.9,1.9-4.2,2.8-6.9,2.8c-2.4,0-4.5-0.8-6.4-2.5C133.8,84.2,132.8,81.8,132.8,78.9z M135.6,78.9
				c0,2,0.7,3.7,2.1,5c1.4,1.3,2.9,2,4.7,2c1.9,0,3.6-0.7,4.9-2c1.3-1.4,2-3,2-4.9c0-2-0.7-3.6-2-4.9c-1.3-1.3-2.9-2-4.8-2
				c-1.9,0-3.5,0.7-4.9,2C136.2,75.4,135.6,77,135.6,78.9z"/>
		</g>
		<g>
			<path class="st0" d="M165.7,69.8v11.1c0,1.6,0.3,2.7,0.8,3.5c0.8,1.1,1.9,1.6,3.3,1.6c1.4,0,2.5-0.5,3.3-1.6
				c0.5-0.7,0.8-1.9,0.8-3.5V69.8h2.8v11.9c0,1.9-0.6,3.5-1.8,4.8c-1.4,1.4-3,2.1-5,2.1c-2,0-3.6-0.7-5-2.1
				c-1.2-1.3-1.8-2.9-1.8-4.8V69.8H165.7z"/>
		</g>
		<g>
			<path class="st0" d="M193.4,72.4v15.8h-2.8V72.4h-4.2v-2.6h11.2v2.6H193.4z"/>
		</g>
		<g>
			<path class="st0" d="M210.2,69.8v18.4h-2.8V69.8H210.2z"/>
		</g>
		<g>
			<path class="st0" d="M222.9,69.8l5.1,12.8l5.2-12.8h3l-8.3,19.8l-8.1-19.8H222.9z"/>
		</g>
		<g>
			<path class="st0" d="M256,72.4h-7.4v4.4h7.2v2.6h-7.2v6.2h7.4v2.6h-10.2V69.8H256V72.4z"/>
		</g>
	</g>
</g>
</svg>
